<?xml version="1.0" standalone="no"?>
<!DOCTYPE svg PUBLIC "-//W3C//DTD SVG 20010904//EN"
 "http://www.w3.org/TR/2001/REC-SVG-20010904/DTD/svg10.dtd">
<svg version="1.0" xmlns="http://www.w3.org/2000/svg"
 width="1040.000000pt" height="1040.000000pt" viewBox="0 0 1040.000000 1040.000000"
 preserveAspectRatio="xMidYMid meet">
<metadata>
Created by potrace 1.14, written by Peter Selinger 2001-2017
</metadata>
<g transform="translate(0.000000,1040.000000) scale(0.100000,-0.100000)"
fill="#000000" stroke="none">
<path d="M3462 8314 l-32 -31 0 -1478 c0 -813 -2 -1480 -4 -1482 -2 -2 -37 34
-77 81 -40 47 -76 86 -81 86 -4 0 -8 7 -8 15 0 7 -6 18 -13 22 -6 4 -37 37
-67 73 -30 36 -57 67 -60 70 -3 3 -48 55 -100 115 -52 61 -99 115 -105 121 -5
6 -28 32 -50 59 -22 26 -51 60 -65 76 -78 86 -136 154 -144 168 -5 9 -17 23
-26 31 -9 8 -45 49 -81 90 -35 41 -66 77 -69 80 -3 3 -30 34 -60 70 -30 36
-59 70 -65 76 -5 6 -27 29 -47 52 -20 22 -45 45 -55 50 -11 6 -409 10 -1060
10 -1101 0 -1044 2 -1058 -38 -1 -3 -5 -13 -8 -22 -4 -10 -9 -24 -11 -32 -4
-12 146 -162 647 -649 73 -71 257 -251 410 -400 153 -150 323 -316 379 -370
l102 -98 -22 -42 c-12 -23 -36 -67 -54 -98 -18 -30 -59 -100 -91 -155 -32 -54
-68 -115 -79 -134 -99 -166 -148 -252 -148 -260 0 -6 -4 -10 -10 -10 -5 0 -10
-4 -10 -8 0 -7 -59 -114 -103 -187 -31 -50 -60 -99 -79 -133 -85 -148 -126
-218 -169 -291 -27 -46 -49 -88 -49 -92 0 -5 -4 -9 -10 -9 -5 0 -10 -4 -10
-10 0 -5 -26 -54 -58 -107 -32 -54 -124 -210 -204 -348 -80 -137 -155 -266
-167 -285 -11 -19 -30 -52 -41 -72 -11 -21 -45 -78 -75 -128 -30 -50 -55 -95
-55 -100 0 -6 -4 -10 -10 -10 -5 0 -10 -4 -10 -9 0 -6 -30 -61 -66 -123 -37
-62 -76 -129 -86 -148 -11 -19 -25 -41 -31 -48 -7 -9 -3 -25 13 -57 13 -25 26
-46 29 -47 28 -7 1893 -4 1918 3 27 9 39 24 79 102 26 51 46 94 45 96 -2 2 1
7 6 10 4 3 76 141 158 306 83 165 153 302 158 303 4 2 7 8 7 14 0 16 33 82 44
90 6 4 8 8 4 8 -4 0 1 15 11 34 20 34 39 70 51 96 156 315 327 649 334 650 5
0 59 -49 120 -110 61 -60 184 -180 274 -268 l162 -158 0 -560 0 -559 33 -31
32 -31 862 1 863 1 27 28 28 27 0 3043 1 3042 -31 30 -30 30 -860 0 -860 0
-33 -31z"/>
<path d="M5458 8319 l-28 -28 0 -3041 0 -3042 30 -29 30 -30 792 1 791 1 29
29 28 30 1 239 1 238 136 -136 c75 -75 164 -157 197 -181 33 -25 62 -48 63
-52 2 -5 8 -8 12 -8 5 0 26 -12 47 -26 33 -23 101 -56 198 -99 30 -14 180 -68
180 -65 0 1 7 -1 15 -4 8 -3 51 -12 95 -21 44 -9 88 -18 99 -21 125 -25 552
-25 629 1 6 2 28 6 47 9 19 3 67 14 107 24 40 11 75 17 78 14 3 -3 5 0 5 6 0
7 3 11 8 11 4 -1 10 0 15 1 4 1 12 4 17 5 6 1 12 4 15 5 3 1 10 4 15 5 6 1 12
4 15 5 3 1 8 3 13 5 45 12 222 100 303 150 68 42 105 68 163 116 17 14 42 34
55 45 31 26 152 150 187 194 16 19 33 40 39 47 22 27 32 41 76 108 87 133 202
351 224 425 4 14 13 39 20 55 28 63 95 284 99 325 1 9 5 21 10 28 4 6 5 12 2
12 -2 0 0 15 5 33 5 17 12 46 14 62 3 17 10 55 15 85 5 30 12 73 15 95 3 22 7
54 10 70 14 91 20 239 19 475 -1 246 -4 312 -19 430 -15 115 -15 118 -41 260
-22 126 -118 441 -136 448 -4 2 -8 8 -8 14 0 34 -132 274 -207 377 -90 124
-255 294 -363 376 -36 27 -66 53 -68 57 -2 4 -10 8 -18 8 -8 0 -17 7 -20 15
-4 8 -10 15 -14 15 -5 0 -46 22 -92 48 -73 42 -215 110 -243 117 -5 1 -23 7
-40 14 -29 12 -151 47 -197 57 -93 19 -127 26 -158 29 -19 2 -64 7 -100 11
-199 22 -463 2 -685 -52 -240 -58 -508 -195 -679 -345 -25 -23 -47 -39 -47
-37 -1 1 -2 443 -3 980 l-1 977 -29 30 -30 31 -855 -1 -856 -1 -27 -29z m2593
-2935 c19 -4 43 -8 55 -9 29 -2 132 -55 185 -95 138 -105 250 -317 276 -520 3
-25 9 -64 13 -88 10 -58 10 -411 0 -492 -5 -36 -11 -84 -14 -107 -3 -23 -10
-61 -16 -85 -6 -24 -13 -54 -16 -67 -3 -14 -7 -28 -10 -33 -3 -4 -7 -18 -9
-30 -8 -41 -76 -172 -113 -218 -47 -58 -122 -128 -144 -135 -10 -4 -18 -11
-18 -16 0 -5 -5 -9 -10 -9 -6 0 -33 -11 -60 -24 -76 -37 -115 -44 -241 -47
-113 -2 -215 25 -318 83 -110 63 -235 213 -271 324 -7 21 -16 44 -20 49 -10
13 -48 171 -55 226 -20 166 -25 395 -12 545 4 44 17 116 28 160 10 43 22 89
24 101 10 45 67 159 109 217 117 164 296 265 486 275 30 1 56 4 57 5 4 4 60
-2 94 -10z"/>
</g>
</svg>
