<?xml version="1.0" standalone="no"?>
<!DOCTYPE svg PUBLIC "-//W3C//DTD SVG 20010904//EN"
 "http://www.w3.org/TR/2001/REC-SVG-20010904/DTD/svg10.dtd">
<svg version="1.0" xmlns="http://www.w3.org/2000/svg"
 width="1040.000000pt" height="1040.000000pt" viewBox="0 0 1040.000000 1040.000000"
 preserveAspectRatio="xMidYMid meet">
<metadata>
Created by potrace 1.14, written by Peter Selinger 2001-2017
</metadata>
<g transform="translate(0.000000,1040.000000) scale(0.100000,-0.100000)"
fill="#000000" stroke="none">
<path d="M3462 8314 l-32 -31 0 -1478 c0 -813 -2 -1480 -4 -1482 -2 -2 -37 34
-77 81 -40 47 -76 86 -81 86 -4 0 -8 7 -8 15 0 7 -6 18 -13 22 -6 4 -37 37
-67 73 -30 36 -57 67 -60 70 -3 3 -48 55 -100 115 -52 61 -99 115 -105 121 -5
6 -28 32 -50 59 -22 26 -51 60 -65 75 -14 15 -36 40 -49 56 -59 70 -127 149
-141 164 -8 9 -37 43 -65 75 -27 32 -66 77 -86 99 -20 23 -45 52 -57 66 -108
129 -140 159 -175 164 -17 3 -492 5 -1054 4 -1075 -1 -1025 1 -1038 -38 -1 -3
-5 -13 -8 -22 -4 -10 -9 -24 -11 -32 -3 -8 105 -120 255 -267 143 -140 332
-324 419 -409 192 -187 616 -601 758 -739 99 -97 112 -116 93 -136 -5 -6 -19
-27 -30 -47 -27 -48 -43 -77 -126 -218 -134 -227 -178 -303 -217 -371 -7 -13
-15 -26 -18 -29 -3 -3 -16 -25 -29 -50 -13 -25 -29 -52 -36 -60 -6 -8 -17 -26
-23 -40 -7 -14 -26 -47 -42 -75 -17 -27 -34 -57 -37 -65 -4 -8 -9 -17 -12 -20
-3 -3 -12 -16 -20 -30 -8 -14 -37 -63 -63 -110 -27 -47 -71 -123 -99 -169 -27
-46 -49 -88 -49 -92 0 -5 -4 -9 -10 -9 -5 0 -10 -5 -10 -10 0 -6 -19 -43 -43
-83 -65 -107 -177 -299 -239 -407 -30 -52 -76 -130 -102 -173 -25 -43 -46 -81
-46 -83 0 -3 -8 -17 -19 -32 -16 -24 -98 -162 -149 -252 -10 -19 -50 -87 -87
-150 -37 -63 -76 -129 -85 -146 -10 -17 -24 -40 -30 -50 -10 -16 -8 -27 13
-64 l25 -45 954 -1 c826 -1 956 1 979 14 16 9 42 46 67 98 23 46 42 87 41 90
0 4 3 10 8 13 4 3 76 141 158 306 83 165 153 302 156 305 3 3 11 22 18 42 7
20 18 41 26 48 7 6 16 23 20 37 3 15 15 39 26 54 10 15 19 34 19 42 0 9 3 18
8 21 4 2 79 148 167 325 88 176 164 320 169 320 5 1 59 -48 120 -108 61 -61
184 -181 274 -269 l162 -159 0 -560 0 -559 33 -31 32 -31 860 1 859 0 31 29
32 28 -2 128 c-2 139 5 168 34 152 10 -5 21 -6 25 -3 4 4 27 8 51 10 l45 4 0
-141 0 -142 29 -29 29 -29 793 0 792 0 28 30 29 30 1 238 1 239 136 -136 c75
-75 164 -157 197 -181 33 -25 62 -48 63 -53 2 -4 8 -7 12 -7 5 0 26 -12 47
-26 82 -55 348 -164 442 -180 14 -3 33 -7 41 -9 8 -2 29 -7 45 -10 17 -2 41
-7 55 -10 134 -27 510 -27 635 0 11 3 31 7 45 9 14 2 48 10 75 16 28 6 57 13
65 15 100 23 329 125 450 200 156 95 312 235 425 378 17 21 35 44 40 50 14 17
97 143 132 202 36 60 138 270 148 305 4 14 13 39 20 55 26 60 96 289 100 325
0 9 4 21 9 28 4 6 5 12 2 12 -2 0 0 15 5 33 5 17 12 46 14 62 28 159 29 169
39 245 16 129 20 229 20 475 -1 149 -4 295 -7 325 -12 116 -21 190 -36 280
-16 97 -17 102 -46 220 -22 90 -97 314 -107 318 -4 2 -8 8 -8 14 0 6 -22 57
-49 113 -52 105 -120 216 -200 320 -54 71 -225 244 -296 300 -27 22 -51 43
-53 48 -2 4 -10 7 -17 7 -7 0 -15 3 -17 8 -3 8 -74 62 -82 62 -2 0 -37 19 -78
43 -64 38 -205 105 -233 112 -5 1 -18 5 -27 8 -10 4 -26 10 -35 14 -27 9 -139
41 -178 49 -40 9 -170 31 -185 32 -8 0 -37 4 -65 7 -141 19 -422 5 -605 -30
-57 -11 -197 -49 -205 -55 -5 -5 -14 -9 -20 -9 -24 -1 -137 -49 -224 -94 -103
-53 -211 -123 -293 -190 -29 -24 -57 -46 -63 -49 -7 -4 -10 322 -9 970 l0 977
-30 33 -30 32 -853 0 -852 0 -31 -30 -30 -29 0 -169 c0 -181 1 -179 -50 -159
-8 3 -33 9 -54 12 -22 3 -42 8 -45 11 -3 3 -6 72 -6 154 l0 148 -30 29 -30 28
-860 0 -860 0 -33 -31z m1873 -469 c17 -3 37 -8 45 -10 8 -2 23 -4 33 -4 16
-1 17 -18 17 -206 0 -194 -1 -205 -20 -215 -11 -6 -20 -9 -20 -6 0 2 -19 -1
-42 -8 -78 -22 -73 -36 -73 209 0 237 1 256 18 250 7 -3 26 -7 42 -10z m94
-869 l1 -314 -73 20 c-39 11 -74 22 -76 24 -10 9 -6 533 4 543 6 5 24 12 40
16 28 5 98 22 102 24 1 1 2 -140 2 -313z m-51 -427 l52 -12 0 -77 0 -77 -57
-26 c-107 -46 -98 -55 -98 89 l0 126 25 -6 c14 -2 49 -10 78 -17z m50 -397 l3
-82 -28 4 c-15 2 -51 9 -79 15 -50 12 -50 12 -50 49 1 35 4 38 66 69 36 18 70
31 75 30 6 -2 11 -40 13 -85z m-58 -198 c65 -12 60 30 60 -455 0 -241 -2 -439
-5 -439 -3 0 -37 64 -77 143 l-71 142 -1 313 -1 313 35 -6 c19 -4 46 -9 60
-11z m2777 -594 c88 -31 178 -99 263 -200 65 -78 141 -270 157 -400 3 -25 9
-64 13 -88 10 -58 10 -411 0 -492 -5 -36 -11 -84 -14 -107 -3 -23 -10 -61 -16
-85 -6 -24 -13 -54 -16 -67 -3 -14 -7 -28 -10 -33 -3 -4 -7 -18 -9 -30 -8 -41
-76 -172 -113 -218 -88 -108 -196 -183 -312 -216 -86 -24 -250 -20 -345 10
-140 43 -287 160 -359 284 -20 35 -36 65 -36 67 0 2 -5 16 -12 32 -6 15 -12
30 -12 33 -1 3 -4 10 -7 15 -10 15 -48 177 -54 226 -14 111 -19 204 -19 329 0
174 9 276 34 375 11 44 23 90 25 102 20 87 118 247 197 319 175 161 432 219
645 144z m-2853 -331 c-3 -5 -10 -7 -15 -3 -5 3 -7 10 -3 15 3 5 10 7 15 3 5
-3 7 -10 3 -15z m98 -195 c33 -61 38 -77 36 -135 l-1 -66 -73 -2 c-41 -1 -74
2 -75 6 -4 37 -4 236 1 243 7 11 52 29 65 26 6 -1 27 -33 47 -72z m38 -484 l0
-160 -32 -20 c-18 -11 -45 -22 -60 -25 -15 -4 -28 -11 -28 -16 0 -5 -8 -9 -17
-9 -17 0 -18 16 -18 188 0 103 3 189 6 192 4 3 39 6 78 7 l71 3 0 -160z m-4
-525 c-2 -6 -33 -11 -77 -10 l-74 0 0 73 c0 40 2 77 5 81 3 5 37 24 75 44 l70
35 3 -106 c1 -58 1 -111 -2 -117z m4 -380 l0 -245 -27 -12 c-16 -6 -30 -12
-33 -13 -3 -1 -18 -8 -35 -15 -62 -28 -59 -40 -60 245 0 143 1 265 3 271 2 7
32 12 78 13 l74 1 0 -245z m-2 -607 c-3 -199 -5 -221 -20 -224 -22 -3 -110 -7
-123 -5 -6 1 -10 72 -10 193 l0 191 30 17 c33 18 106 49 118 49 4 1 6 -99 5
-221z"/>
</g>
</svg>
